solid OpenSCAD_Model
  facet normal -1 0 0
    outer loop
      vertex -10 -8 0
      vertex -10 -8 2
      vertex -10 8 0
    endloop
  endfacet
  facet normal -1 0 0
    outer loop
      vertex -10 8 0
      vertex -10 -8 2
      vertex -10 8 2
    endloop
  endfacet
  facet normal -0.980785 -0.19509 0
    outer loop
      vertex -10 -8 0
      vertex -9.84776 -8.76537 0
      vertex -10 -8 2
    endloop
  endfacet
  facet normal -0.980785 -0.19509 0
    outer loop
      vertex -10 -8 2
      vertex -9.84776 -8.76537 0
      vertex -9.84776 -8.76537 2
    endloop
  endfacet
  facet normal 0 0 -1
    outer loop
      vertex -10 -8 0
      vertex -10 8 0
      vertex -9.84776 -8.76537 0
    endloop
  endfacet
  facet normal 0 0 -1
    outer loop
      vertex -9.84776 -8.76537 0
      vertex -10 8 0
      vertex -9.84776 8.76537 0
    endloop
  endfacet
  facet normal 0 0 -1
    outer loop
      vertex -9.84776 -8.76537 0
      vertex -9.84776 8.76537 0
      vertex -9.41421 9.41421 0
    endloop
  endfacet
  facet normal 0 0 -1
    outer loop
      vertex -9.84776 -8.76537 0
      vertex -9.41421 9.41421 0
      vertex -8.76537 9.84776 0
    endloop
  endfacet
  facet normal 0 0 -1
    outer loop
      vertex -9.84776 -8.76537 0
      vertex -8.76537 9.84776 0
      vertex -8 10 0
    endloop
  endfacet
  facet normal 0 0 -1
    outer loop
      vertex -9.84776 -8.76537 0
      vertex -8 10 0
      vertex -2.9 10 0
    endloop
  endfacet
  facet normal 0 0 -1
    outer loop
      vertex -2.9 10 0
      vertex 1.22461e-015 10 0
      vertex -9.84776 -8.76537 0
    endloop
  endfacet
  facet normal 0 0 -1
    outer loop
      vertex 1.22461e-015 10 0
      vertex 8 10 0
      vertex -9.84776 -8.76537 0
    endloop
  endfacet
  facet normal 0 0 -1
    outer loop
      vertex -9.84776 -8.76537 0
      vertex 8 10 0
      vertex 8.76537 9.84776 0
    endloop
  endfacet
  facet normal 0 0 -1
    outer loop
      vertex -9.84776 -8.76537 0
      vertex 8.76537 9.84776 0
      vertex 9.41421 9.41421 0
    endloop
  endfacet
  facet normal 0 0 -1
    outer loop
      vertex -9.84776 -8.76537 0
      vertex 9.41421 9.41421 0
      vertex 9.84776 8.76537 0
    endloop
  endfacet
  facet normal 0 0 -1
    outer loop
      vertex -9.84776 -8.76537 0
      vertex 9.84776 8.76537 0
      vertex 10 8 0
    endloop
  endfacet
  facet normal 0 0 -1
    outer loop
      vertex -9.84776 -8.76537 0
      vertex 10 8 0
      vertex 10 -8 0
    endloop
  endfacet
  facet normal 0 0 -1
    outer loop
      vertex -9.84776 -8.76537 0
      vertex 10 -8 0
      vertex 9.84776 -8.76537 0
    endloop
  endfacet
  facet normal 0 0 -1
    outer loop
      vertex -9.84776 -8.76537 0
      vertex 9.84776 -8.76537 0
      vertex 9.41421 -9.41421 0
    endloop
  endfacet
  facet normal 0 0 -1
    outer loop
      vertex -9.84776 -8.76537 0
      vertex 9.41421 -9.41421 0
      vertex 8.76537 -9.84776 0
    endloop
  endfacet
  facet normal 0 0 -1
    outer loop
      vertex -9.84776 -8.76537 0
      vertex 8.76537 -9.84776 0
      vertex 8 -10 0
    endloop
  endfacet
  facet normal 0 0 -1
    outer loop
      vertex -9.84776 -8.76537 0
      vertex 8 -10 0
      vertex -8 -10 0
    endloop
  endfacet
  facet normal 0 0 -1
    outer loop
      vertex -9.84776 -8.76537 0
      vertex -8 -10 0
      vertex -8.76537 -9.84776 0
    endloop
  endfacet
  facet normal 0 0 -1
    outer loop
      vertex -9.84776 -8.76537 0
      vertex -8.76537 -9.84776 0
      vertex -9.41421 -9.41421 0
    endloop
  endfacet
  facet normal -0.980785 0.19509 0
    outer loop
      vertex -10 8 0
      vertex -10 8 2
      vertex -9.84776 8.76537 0
    endloop
  endfacet
  facet normal -0.980785 0.19509 0
    outer loop
      vertex -9.84776 8.76537 0
      vertex -10 8 2
      vertex -9.84776 8.76537 2
    endloop
  endfacet
  facet normal 0 0 1
    outer loop
      vertex -10 8 2
      vertex -10 -8 2
      vertex -9.84776 -8.76537 2
    endloop
  endfacet
  facet normal 0 0 1
    outer loop
      vertex -8.76537 -9.84776 2
      vertex -10 8 2
      vertex -9.41421 -9.41421 2
    endloop
  endfacet
  facet normal 0 0 1
    outer loop
      vertex -9.41421 -9.41421 2
      vertex -10 8 2
      vertex -9.84776 -8.76537 2
    endloop
  endfacet
  facet normal 0 0 1
    outer loop
      vertex -8 -10 2
      vertex -10 8 2
      vertex -8.76537 -9.84776 2
    endloop
  endfacet
  facet normal 0 0 1
    outer loop
      vertex -5.4 -6.2 2
      vertex -10 8 2
      vertex -8 -10 2
    endloop
  endfacet
  facet normal 0 0 1
    outer loop
      vertex -5.4 -6.2 2
      vertex -2.4 -3.9 2
      vertex -10 8 2
    endloop
  endfacet
  facet normal 0 0 1
    outer loop
      vertex -2.9 -10 2
      vertex -5.4 -6.2 2
      vertex -8 -10 2
    endloop
  endfacet
  facet normal 0 0 1
    outer loop
      vertex 2.4 -3.9 2
      vertex -10 8 2
      vertex -2.4 -3.9 2
    endloop
  endfacet
  facet normal 0 0 1
    outer loop
      vertex 5.4 -6.2 2
      vertex -10 8 2
      vertex 2.4 -3.9 2
    endloop
  endfacet
  facet normal 0 0 1
    outer loop
      vertex 9.41421 -9.41421 2
      vertex -10 8 2
      vertex 5.4 -6.2 2
    endloop
  endfacet
  facet normal 0 0 1
    outer loop
      vertex 2.9 10 2
      vertex 8.76537 9.84776 2
      vertex 8 10 2
    endloop
  endfacet
  facet normal 0 0 1
    outer loop
      vertex 8 -10 2
      vertex 5.4 -6.2 2
      vertex 2.9 -10 2
    endloop
  endfacet
  facet normal 0 0 1
    outer loop
      vertex 8.76537 -9.84776 2
      vertex 5.4 -6.2 2
      vertex 8 -10 2
    endloop
  endfacet
  facet normal 0 0 1
    outer loop
      vertex 9.41421 -9.41421 2
      vertex 5.4 -6.2 2
      vertex 8.76537 -9.84776 2
    endloop
  endfacet
  facet normal 0 0 1
    outer loop
      vertex 9.84776 -8.76537 2
      vertex -10 8 2
      vertex 9.41421 -9.41421 2
    endloop
  endfacet
  facet normal 0 0 1
    outer loop
      vertex 10 -8 2
      vertex -10 8 2
      vertex 9.84776 -8.76537 2
    endloop
  endfacet
  facet normal 0 0 1
    outer loop
      vertex -2.4 3.9 2
      vertex -10 8 2
      vertex 10 -8 2
    endloop
  endfacet
  facet normal 0 0 1
    outer loop
      vertex 5.4 6.2 2
      vertex 2.4 3.9 2
      vertex 10 -8 2
    endloop
  endfacet
  facet normal 0 0 1
    outer loop
      vertex -2.9 6.2 2
      vertex -2.9 10 2
      vertex -10 8 2
    endloop
  endfacet
  facet normal 0 0 1
    outer loop
      vertex 1.22461e-015 10 2
      vertex 2.9 10 2
      vertex 8 10 2
    endloop
  endfacet
  facet normal 0 0 1
    outer loop
      vertex -5.4 6.2 2
      vertex -2.9 6.2 2
      vertex -10 8 2
    endloop
  endfacet
  facet normal 0 0 1
    outer loop
      vertex 10 8 2
      vertex 5.4 6.2 2
      vertex 10 -8 2
    endloop
  endfacet
  facet normal 0 0 1
    outer loop
      vertex 10 8 2
      vertex 2.9 6.2 2
      vertex 5.4 6.2 2
    endloop
  endfacet
  facet normal 0 0 1
    outer loop
      vertex 2.4 3.9 2
      vertex -2.4 3.9 2
      vertex 10 -8 2
    endloop
  endfacet
  facet normal 0 0 1
    outer loop
      vertex -5.4 6.2 2
      vertex -10 8 2
      vertex -2.4 3.9 2
    endloop
  endfacet
  facet normal 0 0 1
    outer loop
      vertex -8 10 2
      vertex -10 8 2
      vertex -2.9 10 2
    endloop
  endfacet
  facet normal 0 0 1
    outer loop
      vertex -8.76537 9.84776 2
      vertex -10 8 2
      vertex -8 10 2
    endloop
  endfacet
  facet normal 0 0 1
    outer loop
      vertex -9.41421 9.41421 2
      vertex -10 8 2
      vertex -8.76537 9.84776 2
    endloop
  endfacet
  facet normal 0 0 1
    outer loop
      vertex -9.84776 8.76537 2
      vertex -10 8 2
      vertex -9.41421 9.41421 2
    endloop
  endfacet
  facet normal 0 0 1
    outer loop
      vertex 2.9 -6.2 2
      vertex 2.9 -10 2
      vertex 5.4 -6.2 2
    endloop
  endfacet
  facet normal 0 0 1
    outer loop
      vertex -2.9 -6.2 2
      vertex -5.4 -6.2 2
      vertex -2.9 -10 2
    endloop
  endfacet
  facet normal 0 0 1
    outer loop
      vertex 2.9 10 2
      vertex 9.41421 9.41421 2
      vertex 8.76537 9.84776 2
    endloop
  endfacet
  facet normal 0 0 1
    outer loop
      vertex 2.9 10 2
      vertex 9.84776 8.76537 2
      vertex 9.41421 9.41421 2
    endloop
  endfacet
  facet normal 0 0 1
    outer loop
      vertex 2.9 10 2
      vertex 10 8 2
      vertex 9.84776 8.76537 2
    endloop
  endfacet
  facet normal 0 0 1
    outer loop
      vertex 2.9 10 2
      vertex 2.9 6.2 2
      vertex 10 8 2
    endloop
  endfacet
  facet normal -0.83147 -0.55557 0
    outer loop
      vertex -9.84776 -8.76537 0
      vertex -9.41421 -9.41421 0
      vertex -9.84776 -8.76537 2
    endloop
  endfacet
  facet normal -0.83147 -0.55557 0
    outer loop
      vertex -9.84776 -8.76537 2
      vertex -9.41421 -9.41421 0
      vertex -9.41421 -9.41421 2
    endloop
  endfacet
  facet normal -0.55557 -0.83147 0
    outer loop
      vertex -9.41421 -9.41421 2
      vertex -9.41421 -9.41421 0
      vertex -8.76537 -9.84776 0
    endloop
  endfacet
  facet normal -0.55557 -0.83147 0
    outer loop
      vertex -8.76537 -9.84776 2
      vertex -9.41421 -9.41421 2
      vertex -8.76537 -9.84776 0
    endloop
  endfacet
  facet normal -0.19509 -0.980785 0
    outer loop
      vertex -8.76537 -9.84776 2
      vertex -8.76537 -9.84776 0
      vertex -8 -10 0
    endloop
  endfacet
  facet normal -0.19509 -0.980785 0
    outer loop
      vertex -8 -10 2
      vertex -8.76537 -9.84776 2
      vertex -8 -10 0
    endloop
  endfacet
  facet normal 0 -1 0
    outer loop
      vertex -8 -10 2
      vertex -8 -10 0
      vertex 8 -10 0
    endloop
  endfacet
  facet normal 0 -1 0
    outer loop
      vertex -2.9 -10 2
      vertex -8 -10 2
      vertex 8 -10 0
    endloop
  endfacet
  facet normal 0 -1 0
    outer loop
      vertex 2.9 -10 2
      vertex -2.9 -10 2
      vertex 8 -10 0
    endloop
  endfacet
  facet normal 0 -1 0
    outer loop
      vertex 8 -10 2
      vertex 2.9 -10 2
      vertex 8 -10 0
    endloop
  endfacet
  facet normal 0 -1 0
    outer loop
      vertex 2.9 -10 5
      vertex -2.9 -10 2
      vertex 2.9 -10 2
    endloop
  endfacet
  facet normal 0 -1 0
    outer loop
      vertex -2.9 -10 5
      vertex -2.9 -10 2
      vertex 2.9 -10 5
    endloop
  endfacet
  facet normal 0.19509 -0.980785 0
    outer loop
      vertex 8 -10 2
      vertex 8 -10 0
      vertex 8.76537 -9.84776 0
    endloop
  endfacet
  facet normal 0.19509 -0.980785 0
    outer loop
      vertex 8.76537 -9.84776 2
      vertex 8 -10 2
      vertex 8.76537 -9.84776 0
    endloop
  endfacet
  facet normal 0.55557 -0.83147 0
    outer loop
      vertex 8.76537 -9.84776 2
      vertex 8.76537 -9.84776 0
      vertex 9.41421 -9.41421 0
    endloop
  endfacet
  facet normal 0.55557 -0.83147 0
    outer loop
      vertex 9.41421 -9.41421 2
      vertex 8.76537 -9.84776 2
      vertex 9.41421 -9.41421 0
    endloop
  endfacet
  facet normal 0.83147 -0.55557 0
    outer loop
      vertex 9.41421 -9.41421 2
      vertex 9.41421 -9.41421 0
      vertex 9.84776 -8.76537 0
    endloop
  endfacet
  facet normal 0.83147 -0.55557 0
    outer loop
      vertex 9.84776 -8.76537 2
      vertex 9.41421 -9.41421 2
      vertex 9.84776 -8.76537 0
    endloop
  endfacet
  facet normal 0.980785 -0.19509 0
    outer loop
      vertex 9.84776 -8.76537 2
      vertex 9.84776 -8.76537 0
      vertex 10 -8 0
    endloop
  endfacet
  facet normal 0.980785 -0.19509 0
    outer loop
      vertex 10 -8 2
      vertex 9.84776 -8.76537 2
      vertex 10 -8 0
    endloop
  endfacet
  facet normal 1 0 0
    outer loop
      vertex 10 -8 2
      vertex 10 -8 0
      vertex 10 8 0
    endloop
  endfacet
  facet normal 1 0 0
    outer loop
      vertex 10 8 2
      vertex 10 -8 2
      vertex 10 8 0
    endloop
  endfacet
  facet normal 0.980785 0.19509 0
    outer loop
      vertex 10 8 0
      vertex 9.84776 8.76537 0
      vertex 9.84776 8.76537 2
    endloop
  endfacet
  facet normal 0.980785 0.19509 0
    outer loop
      vertex 10 8 2
      vertex 10 8 0
      vertex 9.84776 8.76537 2
    endloop
  endfacet
  facet normal 0.83147 0.55557 0
    outer loop
      vertex 9.84776 8.76537 0
      vertex 9.41421 9.41421 0
      vertex 9.41421 9.41421 2
    endloop
  endfacet
  facet normal 0.83147 0.55557 0
    outer loop
      vertex 9.84776 8.76537 2
      vertex 9.84776 8.76537 0
      vertex 9.41421 9.41421 2
    endloop
  endfacet
  facet normal 0.55557 0.83147 0
    outer loop
      vertex 8.76537 9.84776 0
      vertex 8.76537 9.84776 2
      vertex 9.41421 9.41421 0
    endloop
  endfacet
  facet normal 0.55557 0.83147 0
    outer loop
      vertex 9.41421 9.41421 0
      vertex 8.76537 9.84776 2
      vertex 9.41421 9.41421 2
    endloop
  endfacet
  facet normal 0.19509 0.980785 0
    outer loop
      vertex 8 10 0
      vertex 8 10 2
      vertex 8.76537 9.84776 0
    endloop
  endfacet
  facet normal 0.19509 0.980785 0
    outer loop
      vertex 8.76537 9.84776 0
      vertex 8 10 2
      vertex 8.76537 9.84776 2
    endloop
  endfacet
  facet normal 0 1 0
    outer loop
      vertex 1.22461e-015 10 0
      vertex 1.22461e-015 10 2
      vertex 8 10 0
    endloop
  endfacet
  facet normal 0 1 0
    outer loop
      vertex 8 10 0
      vertex 1.22461e-015 10 2
      vertex 8 10 2
    endloop
  endfacet
  facet normal 1.22461e-016 1 0
    outer loop
      vertex -2.9 10 0
      vertex -2.9 10 5
      vertex 1.22461e-015 10 0
    endloop
  endfacet
  facet normal 1.22461e-016 1 0
    outer loop
      vertex 1.22461e-015 10 2
      vertex -2.9 10 5
      vertex 2.9 10 5
    endloop
  endfacet
  facet normal 1.22461e-016 1 0
    outer loop
      vertex 1.22461e-015 10 0
      vertex -2.9 10 5
      vertex 1.22461e-015 10 2
    endloop
  endfacet
  facet normal 1.22461e-016 1 0
    outer loop
      vertex 1.22461e-015 10 2
      vertex 2.9 10 5
      vertex 2.9 10 2
    endloop
  endfacet
  facet normal -1 1.22461e-016 0
    outer loop
      vertex -2.9 6.2 2
      vertex -2.9 6.2 5
      vertex -2.9 10 2
    endloop
  endfacet
  facet normal -1 1.22461e-016 0
    outer loop
      vertex -2.9 10 2
      vertex -2.9 6.2 5
      vertex -2.9 10 5
    endloop
  endfacet
  facet normal -1 1.22461e-016 0
    outer loop
      vertex -2.9 10 2
      vertex -2.9 10 5
      vertex -2.9 10 0
    endloop
  endfacet
  facet normal 0 1 0
    outer loop
      vertex -8 10 0
      vertex -8 10 2
      vertex -2.9 10 0
    endloop
  endfacet
  facet normal 0 1 0
    outer loop
      vertex -2.9 10 0
      vertex -8 10 2
      vertex -2.9 10 2
    endloop
  endfacet
  facet normal -0.19509 0.980785 0
    outer loop
      vertex -8.76537 9.84776 0
      vertex -8.76537 9.84776 2
      vertex -8 10 0
    endloop
  endfacet
  facet normal -0.19509 0.980785 0
    outer loop
      vertex -8 10 0
      vertex -8.76537 9.84776 2
      vertex -8 10 2
    endloop
  endfacet
  facet normal -0.55557 0.83147 0
    outer loop
      vertex -9.41421 9.41421 0
      vertex -9.41421 9.41421 2
      vertex -8.76537 9.84776 0
    endloop
  endfacet
  facet normal -0.55557 0.83147 0
    outer loop
      vertex -8.76537 9.84776 0
      vertex -9.41421 9.41421 2
      vertex -8.76537 9.84776 2
    endloop
  endfacet
  facet normal -0.83147 0.55557 0
    outer loop
      vertex -9.84776 8.76537 0
      vertex -9.84776 8.76537 2
      vertex -9.41421 9.41421 0
    endloop
  endfacet
  facet normal -0.83147 0.55557 0
    outer loop
      vertex -9.41421 9.41421 0
      vertex -9.84776 8.76537 2
      vertex -9.41421 9.41421 2
    endloop
  endfacet
  facet normal 1.22461e-016 1 0
    outer loop
      vertex -5.4 6.2 2
      vertex -5.4 6.2 5
      vertex -2.9 6.2 2
    endloop
  endfacet
  facet normal 1.22461e-016 1 0
    outer loop
      vertex -2.9 6.2 2
      vertex -5.4 6.2 5
      vertex -2.9 6.2 5
    endloop
  endfacet
  facet normal -0.608432 -0.793606 0
    outer loop
      vertex -5.4 6.2 5
      vertex -5.4 6.2 2
      vertex -2.4 3.9 2
    endloop
  endfacet
  facet normal -0.608432 -0.793606 0
    outer loop
      vertex -2.4 3.9 5
      vertex -5.4 6.2 5
      vertex -2.4 3.9 2
    endloop
  endfacet
  facet normal -1.22461e-016 -1 0
    outer loop
      vertex -2.4 3.9 5
      vertex -2.4 3.9 2
      vertex 2.4 3.9 2
    endloop
  endfacet
  facet normal -1.22461e-016 -1 0
    outer loop
      vertex 2.4 3.9 5
      vertex -2.4 3.9 5
      vertex 2.4 3.9 2
    endloop
  endfacet
  facet normal 0.608432 -0.793606 0
    outer loop
      vertex 2.4 3.9 5
      vertex 2.4 3.9 2
      vertex 5.4 6.2 2
    endloop
  endfacet
  facet normal 0.608432 -0.793606 0
    outer loop
      vertex 5.4 6.2 5
      vertex 2.4 3.9 5
      vertex 5.4 6.2 2
    endloop
  endfacet
  facet normal 1.22461e-016 1 0
    outer loop
      vertex 2.9 6.2 2
      vertex 2.9 6.2 5
      vertex 5.4 6.2 2
    endloop
  endfacet
  facet normal 1.22461e-016 1 0
    outer loop
      vertex 5.4 6.2 2
      vertex 2.9 6.2 5
      vertex 5.4 6.2 5
    endloop
  endfacet
  facet normal 1 -1.22461e-016 0
    outer loop
      vertex 2.9 6.2 5
      vertex 2.9 6.2 2
      vertex 2.9 10 2
    endloop
  endfacet
  facet normal 1 -1.22461e-016 0
    outer loop
      vertex 2.9 10 5
      vertex 2.9 6.2 5
      vertex 2.9 10 2
    endloop
  endfacet
  facet normal 1 0 0
    outer loop
      vertex 2.9 -10 5
      vertex 2.9 -10 2
      vertex 2.9 -6.2 2
    endloop
  endfacet
  facet normal 1 0 0
    outer loop
      vertex 2.9 -6.2 5
      vertex 2.9 -10 5
      vertex 2.9 -6.2 2
    endloop
  endfacet
  facet normal 0 -1 0
    outer loop
      vertex 2.9 -6.2 5
      vertex 2.9 -6.2 2
      vertex 5.4 -6.2 2
    endloop
  endfacet
  facet normal 0 -1 0
    outer loop
      vertex 5.4 -6.2 5
      vertex 2.9 -6.2 5
      vertex 5.4 -6.2 2
    endloop
  endfacet
  facet normal 0.608432 0.793606 0
    outer loop
      vertex 2.4 -3.9 2
      vertex 2.4 -3.9 5
      vertex 5.4 -6.2 2
    endloop
  endfacet
  facet normal 0.608432 0.793606 0
    outer loop
      vertex 5.4 -6.2 2
      vertex 2.4 -3.9 5
      vertex 5.4 -6.2 5
    endloop
  endfacet
  facet normal 0 1 0
    outer loop
      vertex -2.4 -3.9 2
      vertex -2.4 -3.9 5
      vertex 2.4 -3.9 2
    endloop
  endfacet
  facet normal 0 1 0
    outer loop
      vertex 2.4 -3.9 2
      vertex -2.4 -3.9 5
      vertex 2.4 -3.9 5
    endloop
  endfacet
  facet normal -0.608432 0.793606 0
    outer loop
      vertex -5.4 -6.2 2
      vertex -5.4 -6.2 5
      vertex -2.4 -3.9 2
    endloop
  endfacet
  facet normal -0.608432 0.793606 0
    outer loop
      vertex -2.4 -3.9 2
      vertex -5.4 -6.2 5
      vertex -2.4 -3.9 5
    endloop
  endfacet
  facet normal 0 -1 0
    outer loop
      vertex -5.4 -6.2 5
      vertex -5.4 -6.2 2
      vertex -2.9 -6.2 2
    endloop
  endfacet
  facet normal 0 -1 0
    outer loop
      vertex -2.9 -6.2 5
      vertex -5.4 -6.2 5
      vertex -2.9 -6.2 2
    endloop
  endfacet
  facet normal -1 0 0
    outer loop
      vertex -2.9 -10 2
      vertex -2.9 -10 5
      vertex -2.9 -6.2 2
    endloop
  endfacet
  facet normal -1 0 0
    outer loop
      vertex -2.9 -6.2 2
      vertex -2.9 -10 5
      vertex -2.9 -6.2 5
    endloop
  endfacet
  facet normal 0 0 1
    outer loop
      vertex 2.9 -6.2 5
      vertex 5.4 -6.2 5
      vertex -2.4 -3.9 5
    endloop
  endfacet
  facet normal 0 0 1
    outer loop
      vertex -2.4 -3.9 5
      vertex -5.4 -6.2 5
      vertex -2.9 -6.2 5
    endloop
  endfacet
  facet normal 0 0 1
    outer loop
      vertex -2.9 -10 5
      vertex -2.4 -3.9 5
      vertex -2.9 -6.2 5
    endloop
  endfacet
  facet normal 0 0 1
    outer loop
      vertex -2.9 -10 5
      vertex 2.9 -10 5
      vertex -2.4 -3.9 5
    endloop
  endfacet
  facet normal 0 0 1
    outer loop
      vertex 2.9 -10 5
      vertex 2.9 -6.2 5
      vertex -2.4 -3.9 5
    endloop
  endfacet
  facet normal 0 0 1
    outer loop
      vertex 5.4 -6.2 5
      vertex 2.4 -3.9 5
      vertex -2.4 -3.9 5
    endloop
  endfacet
  facet normal 0 0 1
    outer loop
      vertex -2.9 6.2 5
      vertex -5.4 6.2 5
      vertex -2.4 3.9 5
    endloop
  endfacet
  facet normal 0 0 1
    outer loop
      vertex 2.9 6.2 5
      vertex -2.9 6.2 5
      vertex 2.4 3.9 5
    endloop
  endfacet
  facet normal 0 0 1
    outer loop
      vertex 2.4 3.9 5
      vertex -2.9 6.2 5
      vertex -2.4 3.9 5
    endloop
  endfacet
  facet normal 0 0 1
    outer loop
      vertex 2.9 10 5
      vertex -2.9 6.2 5
      vertex 2.9 6.2 5
    endloop
  endfacet
  facet normal 0 0 1
    outer loop
      vertex 5.4 6.2 5
      vertex 2.9 6.2 5
      vertex 2.4 3.9 5
    endloop
  endfacet
  facet normal 0 0 1
    outer loop
      vertex -2.9 10 5
      vertex -2.9 6.2 5
      vertex 2.9 10 5
    endloop
  endfacet
endsolid OpenSCAD_Model
